<svg xmlns="http://www.w3.org/2000/svg" viewBox="0 0 64 64" fill="none">
  <!-- Background circle -->
  <circle cx="32" cy="32" r="30" fill="#D4AF37" opacity="0.2"/>
  
  <!-- Dollar sign -->
  <path d="M32 12V18M32 46V52M38 24C38 26.2091 35.3137 28 32 28C28.6863 28 26 26.2091 26 24C26 21.7909 28.6863 20 32 20C35.3137 20 38 21.7909 38 24ZM38 40C38 42.2091 35.3137 44 32 44C28.6863 44 26 42.2091 26 40C26 37.7909 28.6863 36 32 36C35.3137 36 38 37.7909 38 40Z" 
        stroke="#D4AF37" 
        stroke-width="3" 
        stroke-linecap="round" 
        stroke-linejoin="round"/>
  
  <!-- Vertical line through dollar sign -->
  <line x1="32" y1="20" x2="32" y2="44" 
        stroke="#D4AF37" 
        stroke-width="3" 
        stroke-linecap="round"/>
  
  <!-- Small decorative elements - coins/money symbols -->
  <circle cx="20" cy="20" r="2" fill="#D4AF37" opacity="0.6"/>
  <circle cx="44" cy="20" r="2" fill="#D4AF37" opacity="0.6"/>
  <circle cx="20" cy="44" r="2" fill="#D4AF37" opacity="0.6"/>
  <circle cx="44" cy="44" r="2" fill="#D4AF37" opacity="0.6"/>
</svg>





